<svg width="24" height="25" viewBox="0 0 24 25" fill="none" xmlns="http://www.w3.org/2000/svg">
<g clip-path="url(#clip0_1646_2379)">
<path d="M9.57764 11.9598H10.6144L10.096 10.541L9.57764 11.9598Z" fill="white"/>
<path d="M12 4.5C7.02923 4.5 3 7.56012 3 11.3355C3 13.7762 4.6849 15.9202 7.21875 17.1273C7.08115 17.5849 6.3326 20.0732 6.30317 20.2691C6.30317 20.2691 6.285 20.4158 6.38365 20.4717C6.41666 20.4877 6.45272 20.4971 6.48962 20.4992C6.52653 20.5014 6.5635 20.4963 6.59827 20.4842C6.88212 20.4458 9.88673 18.416 10.406 18.0667C10.9341 18.1374 11.4668 18.1722 12 18.1709C16.9708 18.1709 21 15.1108 21 11.3355C21 7.56012 16.9708 4.5 12 4.5ZM7.54587 10.2743C7.53462 11.2413 7.55452 12.2583 7.53808 13.2102C7.53288 13.5145 7.35115 13.6053 7.10538 13.692C7.07762 13.7015 7.04771 13.7035 7.01885 13.6979C6.7376 13.6445 6.51346 13.5478 6.50654 13.2111C6.48663 12.2599 6.5126 11.2413 6.49875 10.2743C6.26077 10.2651 5.92154 10.2835 5.70087 10.2743C5.39452 10.2551 5.18163 10.0676 5.19462 9.78832C5.2076 9.50907 5.3625 9.30817 5.70606 9.30317C6.51779 9.2915 7.52337 9.2915 8.3351 9.30317C8.68125 9.30817 8.83529 9.5099 8.84567 9.78832C8.85606 10.0667 8.64664 10.2551 8.34115 10.2743C8.12308 10.2835 7.78471 10.2651 7.54587 10.2743ZM11.9074 13.6462C11.8036 13.6917 11.6909 13.7153 11.5768 13.7154C11.3605 13.7154 11.1952 13.632 11.1441 13.4945L10.8845 12.8459H9.30433L9.04471 13.4945C8.99452 13.6304 8.82923 13.7154 8.61202 13.7154C8.49823 13.7154 8.38578 13.6918 8.28231 13.6462C8.13865 13.5828 8.00106 13.4078 8.15856 12.936L9.40385 9.78665C9.45607 9.64793 9.5496 9.52712 9.67275 9.43934C9.79589 9.35157 9.94316 9.30072 10.0962 9.29316C10.249 9.30153 10.396 9.35279 10.519 9.44062C10.642 9.52845 10.7357 9.64902 10.7885 9.78749L12.0294 12.9351C12.1878 13.4078 12.0502 13.5862 11.9074 13.6462ZM14.5312 13.6462H12.8654C12.7364 13.6487 12.6116 13.6018 12.5183 13.5159C12.4251 13.43 12.371 13.312 12.3678 13.1877V9.79332C12.3733 9.66148 12.4316 9.53681 12.5304 9.44541C12.6292 9.35401 12.7609 9.30296 12.8978 9.30296C13.0348 9.30296 13.1665 9.35401 13.2653 9.44541C13.3641 9.53681 13.4224 9.66148 13.4279 9.79332V12.7317H14.5312C14.5962 12.728 14.6612 12.737 14.7224 12.7584C14.7835 12.7797 14.8395 12.8129 14.8868 12.8558C14.9342 12.8987 14.9719 12.9506 14.9977 13.0081C15.0235 13.0656 15.0368 13.1276 15.0368 13.1902C15.0368 13.2529 15.0235 13.3148 14.9977 13.3724C14.9719 13.4299 14.9342 13.4817 14.8868 13.5246C14.8395 13.5676 14.7835 13.6007 14.7224 13.6221C14.6612 13.6434 14.5962 13.6525 14.5312 13.6487V13.6462ZM18.5986 13.2694C18.585 13.3681 18.5413 13.4606 18.4729 13.5352C18.4045 13.6098 18.3145 13.663 18.2145 13.688C18.1146 13.7131 18.0091 13.7089 17.9116 13.6759C17.8142 13.6429 17.7291 13.5826 17.6674 13.5028L16.4498 11.9498L16.2698 12.1232V13.2144C16.2698 13.347 16.2151 13.4743 16.1177 13.5681C16.0204 13.6619 15.8883 13.7145 15.7506 13.7145C15.6129 13.7145 15.4808 13.6619 15.3834 13.5681C15.2861 13.4743 15.2313 13.347 15.2313 13.2144V9.79666C15.2313 9.66401 15.2861 9.53679 15.3834 9.44299C15.4808 9.34919 15.6129 9.2965 15.7506 9.2965C15.8883 9.2965 16.0204 9.34919 16.1177 9.44299C16.2151 9.53679 16.2698 9.66401 16.2698 9.79666V10.8687L17.7185 9.47322C17.7564 9.4371 17.8014 9.40862 17.8509 9.38944C17.9004 9.37026 17.9533 9.36077 18.0066 9.36152C18.1363 9.3648 18.2601 9.41409 18.3544 9.49994C18.4486 9.58579 18.5066 9.70215 18.5172 9.82666C18.5219 9.88223 18.5142 9.93811 18.4946 9.99058C18.4751 10.0431 18.4441 10.0909 18.4038 10.1309L17.2183 11.2704L18.4964 12.9018C18.5792 13.0076 18.615 13.1407 18.596 13.2719L18.5986 13.2694Z" fill="white"/>
</g>
<defs>
<clipPath id="clip0_1646_2379">
<rect width="24" height="24" fill="white" transform="translate(0 0.5)"/>
</clipPath>
</defs>
</svg>
