<svg width="48" height="48" viewBox="0 0 48 48" fill="none" xmlns="http://www.w3.org/2000/svg">
<rect width="48" height="48" rx="24" fill="#E4571B"/>
<path d="M22.9041 36V33.8082C20.621 33.5525 18.6623 32.6075 17.0279 30.9732C15.3929 29.3381 14.4475 27.379 14.1918 25.0959H12V22.9041H14.1918C14.4475 20.621 15.3929 18.6619 17.0279 17.0268C18.6623 15.3925 20.621 14.4475 22.9041 14.1918V12H25.0959V14.1918C27.379 14.4475 29.3381 15.3925 30.9732 17.0268C32.6075 18.6619 33.5525 20.621 33.8082 22.9041H36V25.0959H33.8082C33.5525 27.379 32.6075 29.3381 30.9732 30.9732C29.3381 32.6075 27.379 33.5525 25.0959 33.8082V36H22.9041ZM24 31.6712C26.1187 31.6712 27.9269 30.9224 29.4247 29.4247C30.9224 27.9269 31.6712 26.1187 31.6712 24C31.6712 21.8813 30.9224 20.0731 29.4247 18.5753C27.9269 17.0776 26.1187 16.3288 24 16.3288C21.8813 16.3288 20.0731 17.0776 18.5753 18.5753C17.0776 20.0731 16.3288 21.8813 16.3288 24C16.3288 26.1187 17.0776 27.9269 18.5753 29.4247C20.0731 30.9224 21.8813 31.6712 24 31.6712ZM24 28.3836C22.7945 28.3836 21.7626 27.9543 20.9041 27.0959C20.0457 26.2374 19.6164 25.2055 19.6164 24C19.6164 22.7945 20.0457 21.7626 20.9041 20.9041C21.7626 20.0457 22.7945 19.6164 24 19.6164C25.2055 19.6164 26.2374 20.0457 27.0959 20.9041C27.9543 21.7626 28.3836 22.7945 28.3836 24C28.3836 25.2055 27.9543 26.2374 27.0959 27.0959C26.2374 27.9543 25.2055 28.3836 24 28.3836ZM24 26.1918C24.6027 26.1918 25.1189 25.977 25.5485 25.5474C25.9774 25.1185 26.1918 24.6027 26.1918 24C26.1918 23.3973 25.9774 22.8811 25.5485 22.4515C25.1189 22.0226 24.6027 21.8082 24 21.8082C23.3973 21.8082 22.8815 22.0226 22.4526 22.4515C22.023 22.8811 21.8082 23.3973 21.8082 24C21.8082 24.6027 22.023 25.1185 22.4526 25.5474C22.8815 25.977 23.3973 26.1918 24 26.1918Z" fill="black"/>
</svg>
