<svg width="24" height="24" viewBox="0 0 24 24" fill="none" xmlns="http://www.w3.org/2000/svg">
<mask id="mask0_1375_2497" style="mask-type:alpha" maskUnits="userSpaceOnUse" x="0" y="0" width="24" height="24">
<rect width="24" height="24" fill="#D9D9D9"/>
</mask>
<g mask="url(#mask0_1375_2497)">
<path fill-rule="evenodd" clip-rule="evenodd" d="M4 5.5C4 3.567 5.567 2 7.5 2C9.433 2 11 3.567 11 5.5V9.5C11 11.0855 9.94574 12.4248 8.5 12.8551V22H6.5V12.8551C5.05426 12.4248 4 11.0855 4 9.5V5.5ZM12 2H14V9H15V2H17V9H18V2H20V9C20 10.8638 18.7252 12.4299 17 12.874V22H15V12.874C13.2748 12.4299 12 10.8638 12 9V2Z" fill="black"/>
</g>
</svg>
